<svg xmlns="http://www.w3.org/2000/svg" xmlns:xlink="http://www.w3.org/1999/xlink" width="140" height="40" viewBox="0 0 140 40">
  <defs>
    <linearGradient id="linear-gradient" x1="0.479" y1="0.361" x2="0.076" y2="0.957" gradientUnits="objectBoundingBox">
      <stop offset="0" stop-color="#ff5703"/>
      <stop offset="1" stop-color="#ff8447"/>
    </linearGradient>
  </defs>
  <g id="BTC.movi_Logo_01_03" transform="translate(-39 -96)">
    <path id="C" d="M69.687,29.435a2.015,2.015,0,0,1,0-2.783,1.946,1.946,0,0,1,2.743,0,2.015,2.015,0,0,1,0,2.783,1.946,1.946,0,0,1-2.743,0Zm-4.285,0a2.015,2.015,0,0,1,0-2.783,1.946,1.946,0,0,1,2.743,0,2.017,2.017,0,0,1,0,2.783,1.946,1.946,0,0,1-2.743,0Zm-4.285,0a2.015,2.015,0,0,1,0-2.783,1.946,1.946,0,0,1,2.743,0,2.017,2.017,0,0,1,0,2.783,1.946,1.946,0,0,1-2.743,0Zm-4.286,0a2.017,2.017,0,0,1,0-2.783,1.946,1.946,0,0,1,2.743,0,2.015,2.015,0,0,1,0,2.783,1.946,1.946,0,0,1-2.743,0Zm-4.285-4.348a2.015,2.015,0,0,1,0-2.783,1.946,1.946,0,0,1,2.743,0,2.015,2.015,0,0,1,0,2.783,1.946,1.946,0,0,1-2.743,0Zm0-4.348a2.015,2.015,0,0,1,0-2.783,1.946,1.946,0,0,1,2.743,0,2.015,2.015,0,0,1,0,2.783,1.946,1.946,0,0,1-2.743,0Zm0-4.348a2.015,2.015,0,0,1,0-2.783,1.946,1.946,0,0,1,2.743,0,2.015,2.015,0,0,1,0,2.783,1.946,1.946,0,0,1-2.743,0Zm0-4.348a2.015,2.015,0,0,1,0-2.783,1.946,1.946,0,0,1,2.743,0,2.015,2.015,0,0,1,0,2.783,1.946,1.946,0,0,1-2.743,0Zm0-4.348A1.907,1.907,0,0,1,51.987,6.3a1.906,1.906,0,0,1,.557-1.391,1.946,1.946,0,0,1,2.743,0A1.9,1.9,0,0,1,55.845,6.3,1.9,1.9,0,0,1,55.287,7.7a1.946,1.946,0,0,1-2.743,0ZM69.687,3.348a1.9,1.9,0,0,1-.557-1.391A1.9,1.9,0,0,1,69.687.565a1.946,1.946,0,0,1,2.743,0,1.906,1.906,0,0,1,.557,1.391,1.907,1.907,0,0,1-.557,1.391,1.946,1.946,0,0,1-2.743,0Zm-4.285,0a1.9,1.9,0,0,1-.557-1.391A1.9,1.9,0,0,1,65.4.565a1.946,1.946,0,0,1,2.743,0A1.9,1.9,0,0,1,68.7,1.957a1.906,1.906,0,0,1-.557,1.391,1.946,1.946,0,0,1-2.743,0Zm-4.285,0a1.9,1.9,0,0,1-.557-1.391A1.9,1.9,0,0,1,61.116.565a1.946,1.946,0,0,1,2.743,0,1.9,1.9,0,0,1,.557,1.391,1.906,1.906,0,0,1-.557,1.391,1.946,1.946,0,0,1-2.743,0Zm-4.286,0a1.906,1.906,0,0,1-.557-1.391A1.9,1.9,0,0,1,56.83.565a1.946,1.946,0,0,1,2.743,0,1.9,1.9,0,0,1,.557,1.391,1.9,1.9,0,0,1-.557,1.391,1.946,1.946,0,0,1-2.743,0Z" transform="translate(33.013 106)" fill="#ff5703"/>
    <path id="T" d="M36.211,29.435a2.017,2.017,0,0,1,0-2.783,1.946,1.946,0,0,1,2.743,0,2.015,2.015,0,0,1,0,2.783,1.946,1.946,0,0,1-2.743,0Zm0-4.348a2.017,2.017,0,0,1,0-2.783,1.946,1.946,0,0,1,2.743,0,2.015,2.015,0,0,1,0,2.783,1.946,1.946,0,0,1-2.743,0Zm0-4.348a2.017,2.017,0,0,1,0-2.783,1.946,1.946,0,0,1,2.743,0,2.015,2.015,0,0,1,0,2.783,1.946,1.946,0,0,1-2.743,0Zm0-4.348a2.017,2.017,0,0,1,0-2.783,1.946,1.946,0,0,1,2.743,0,2.015,2.015,0,0,1,0,2.783,1.946,1.946,0,0,1-2.743,0Zm0-4.348a2.017,2.017,0,0,1,0-2.783,1.946,1.946,0,0,1,2.743,0,2.015,2.015,0,0,1,0,2.783,1.946,1.946,0,0,1-2.743,0Zm0-4.348A1.906,1.906,0,0,1,35.654,6.3a1.9,1.9,0,0,1,.557-1.391,1.946,1.946,0,0,1,2.743,0A1.9,1.9,0,0,1,39.511,6.3,1.9,1.9,0,0,1,38.953,7.7a1.946,1.946,0,0,1-2.743,0Zm8.572-4.348a1.9,1.9,0,0,1-.557-1.391A1.9,1.9,0,0,1,44.783.565a1.946,1.946,0,0,1,2.743,0,1.9,1.9,0,0,1,.557,1.391,1.906,1.906,0,0,1-.557,1.391,1.946,1.946,0,0,1-2.743,0Zm-4.286,0a1.9,1.9,0,0,1-.557-1.391A1.9,1.9,0,0,1,40.5.565a1.946,1.946,0,0,1,2.743,0A1.9,1.9,0,0,1,43.8,1.957a1.906,1.906,0,0,1-.557,1.391,1.946,1.946,0,0,1-2.743,0Zm-4.286,0a1.906,1.906,0,0,1-.557-1.391A1.9,1.9,0,0,1,36.211.565a1.946,1.946,0,0,1,2.743,0,1.9,1.9,0,0,1,.557,1.391,1.9,1.9,0,0,1-.557,1.391,1.946,1.946,0,0,1-2.743,0Zm-4.286,0a1.907,1.907,0,0,1-.557-1.391A1.906,1.906,0,0,1,31.925.565a1.946,1.946,0,0,1,2.743,0,1.9,1.9,0,0,1,.557,1.391,1.9,1.9,0,0,1-.557,1.391,1.946,1.946,0,0,1-2.743,0Zm-4.286,0a1.9,1.9,0,0,1-.557-1.391A1.9,1.9,0,0,1,27.639.565a1.946,1.946,0,0,1,2.743,0,1.906,1.906,0,0,1,.557,1.391,1.907,1.907,0,0,1-.557,1.391,1.946,1.946,0,0,1-2.743,0Z" transform="translate(34.918 106)" fill="#ff5703"/>
    <path id="B" d="M16.414,29.435a2.017,2.017,0,0,1,0-2.783,1.946,1.946,0,0,1,2.743,0,2.015,2.015,0,0,1,0,2.783,1.946,1.946,0,0,1-2.743,0Zm-4.286,0a2.015,2.015,0,0,1,0-2.783,1.946,1.946,0,0,1,2.743,0,2.015,2.015,0,0,1,0,2.783,1.946,1.946,0,0,1-2.743,0Zm-4.286,0a2.015,2.015,0,0,1,0-2.783,1.946,1.946,0,0,1,2.743,0,2.015,2.015,0,0,1,0,2.783,1.946,1.946,0,0,1-2.743,0Zm-4.286,0a2.015,2.015,0,0,1,0-2.783,1.848,1.848,0,0,1,1.371-.565,1.851,1.851,0,0,1,1.371.565,2.017,2.017,0,0,1,0,2.783A1.854,1.854,0,0,1,4.929,30,1.851,1.851,0,0,1,3.557,29.435ZM20.7,25.087a2.017,2.017,0,0,1,0-2.783,1.947,1.947,0,0,1,2.744,0,2.017,2.017,0,0,1,0,2.783,1.947,1.947,0,0,1-2.744,0Zm-17.142,0a2.015,2.015,0,0,1,0-2.783,1.848,1.848,0,0,1,1.371-.565A1.851,1.851,0,0,1,6.3,22.3a2.017,2.017,0,0,1,0,2.783,1.854,1.854,0,0,1-1.371.565A1.851,1.851,0,0,1,3.557,25.087ZM20.7,20.739a2.017,2.017,0,0,1,0-2.783,1.947,1.947,0,0,1,2.744,0,2.017,2.017,0,0,1,0,2.783,1.947,1.947,0,0,1-2.744,0Zm-17.142,0a2.015,2.015,0,0,1,0-2.783,1.848,1.848,0,0,1,1.371-.565,1.851,1.851,0,0,1,1.371.565,2.017,2.017,0,0,1,0,2.783,1.854,1.854,0,0,1-1.371.565A1.851,1.851,0,0,1,3.557,20.739Zm12.857-4.348a2.017,2.017,0,0,1,0-2.783,1.946,1.946,0,0,1,2.743,0,2.015,2.015,0,0,1,0,2.783,1.946,1.946,0,0,1-2.743,0Zm-4.286,0a2.015,2.015,0,0,1,0-2.783,1.946,1.946,0,0,1,2.743,0,2.015,2.015,0,0,1,0,2.783,1.946,1.946,0,0,1-2.743,0Zm-4.286,0a2.015,2.015,0,0,1,0-2.783,1.946,1.946,0,0,1,2.743,0,2.015,2.015,0,0,1,0,2.783,1.946,1.946,0,0,1-2.743,0Zm-4.286,0a2.015,2.015,0,0,1,0-2.783,1.848,1.848,0,0,1,1.371-.565,1.851,1.851,0,0,1,1.371.565,2.017,2.017,0,0,1,0,2.783,1.854,1.854,0,0,1-1.371.565A1.851,1.851,0,0,1,3.557,16.391ZM20.7,12.044a2.017,2.017,0,0,1,0-2.783,1.947,1.947,0,0,1,2.744,0,2.017,2.017,0,0,1,0,2.783,1.947,1.947,0,0,1-2.744,0Zm-17.142,0a2.015,2.015,0,0,1,0-2.783A1.848,1.848,0,0,1,4.929,8.7,1.851,1.851,0,0,1,6.3,9.261a2.017,2.017,0,0,1,0,2.783,1.854,1.854,0,0,1-1.371.565A1.851,1.851,0,0,1,3.557,12.044ZM20.7,7.7A1.906,1.906,0,0,1,20.143,6.3,1.9,1.9,0,0,1,20.7,4.913a1.947,1.947,0,0,1,2.744,0A1.9,1.9,0,0,1,24,6.3,1.906,1.906,0,0,1,23.443,7.7a1.947,1.947,0,0,1-2.744,0ZM3.557,7.7A1.9,1.9,0,0,1,3,6.3a1.9,1.9,0,0,1,.557-1.391,1.848,1.848,0,0,1,1.371-.565A1.851,1.851,0,0,1,6.3,4.913,1.9,1.9,0,0,1,6.857,6.3,1.906,1.906,0,0,1,6.3,7.7a1.854,1.854,0,0,1-1.371.565A1.851,1.851,0,0,1,3.557,7.7ZM16.414,3.348a1.906,1.906,0,0,1-.557-1.391A1.9,1.9,0,0,1,16.414.565a1.946,1.946,0,0,1,2.743,0,1.9,1.9,0,0,1,.557,1.391,1.9,1.9,0,0,1-.557,1.391,1.946,1.946,0,0,1-2.743,0Zm-4.286,0a1.907,1.907,0,0,1-.557-1.391A1.906,1.906,0,0,1,12.129.565a1.946,1.946,0,0,1,2.743,0,1.9,1.9,0,0,1,.557,1.391,1.9,1.9,0,0,1-.557,1.391,1.946,1.946,0,0,1-2.743,0Zm-4.286,0a1.9,1.9,0,0,1-.557-1.391A1.9,1.9,0,0,1,7.843.565a1.946,1.946,0,0,1,2.743,0,1.906,1.906,0,0,1,.557,1.391,1.907,1.907,0,0,1-.557,1.391,1.946,1.946,0,0,1-2.743,0Zm-4.286,0A1.9,1.9,0,0,1,3,1.957,1.9,1.9,0,0,1,3.557.565,1.848,1.848,0,0,1,4.929,0,1.851,1.851,0,0,1,6.3.565a1.9,1.9,0,0,1,.557,1.391A1.906,1.906,0,0,1,6.3,3.348a1.854,1.854,0,0,1-1.371.565A1.851,1.851,0,0,1,3.557,3.348Z" transform="translate(36 106)" fill="#ff5703"/>
    <path id="Path_184" data-name="Path 184" d="M10.072,38.146a1.839,1.839,0,0,1,1.823-1.854q.062,0,.123,0H40.711q.492,0,.976-.032c.4-.025.793-.064,1.183-.122s.792-.127,1.18-.215a15.639,15.639,0,0,0,7.815-4.411A16.525,16.525,0,0,0,56.493,20,16.067,16.067,0,0,0,40.711,3.7,15.488,15.488,0,0,0,29.556,8.477a16.573,16.573,0,0,0-3.7,6.027,1.82,1.82,0,0,1-3.6-.417,1.868,1.868,0,0,1,.243-.926,19.862,19.862,0,0,1,4.52-7.3,18.929,18.929,0,0,1,27.381,0A20.2,20.2,0,0,1,60.072,20,20.2,20.2,0,0,1,54.4,34.136a18.943,18.943,0,0,1-12.736,5.833c-.155.008-.309.014-.464.018-.084,0-.41.006-3.122,0H12.037q-.07.005-.142.006A1.839,1.839,0,0,1,10.072,38.146Z" transform="translate(118.928 96)" fill="url(#linear-gradient)"/>
    <g id="Group_2" data-name="Group 2" transform="translate(-10 2)">
      <path id="Path_1" data-name="Path 1" d="M19.634.6V-8.379a3.74,3.74,0,0,0-.7-2.473,2.7,2.7,0,0,0-2.178-.824,3.506,3.506,0,0,0-2.866,1.12,5.345,5.345,0,0,0-.926,3.449V.6H10.885V-8.379a3.74,3.74,0,0,0-.7-2.473,2.72,2.72,0,0,0-2.19-.824A3.384,3.384,0,0,0,5.134-10.5a6.4,6.4,0,0,0-.907,3.858V.6H2.148V-13.2h1.69l.338,1.888h.1a4.093,4.093,0,0,1,1.658-1.573,5.044,5.044,0,0,1,2.4-.566q3.217,0,4.206,2.341h.1a4.385,4.385,0,0,1,1.777-1.712,5.49,5.49,0,0,1,2.653-.629,4.63,4.63,0,0,1,3.486,1.2A5.4,5.4,0,0,1,21.712-8.4v9Zm18.2-6.91a7.638,7.638,0,0,1-1.69,5.267A5.934,5.934,0,0,1,31.475.847a6.157,6.157,0,0,1-3.267-.868A5.721,5.721,0,0,1,26-2.513a8.727,8.727,0,0,1-.776-3.8,7.626,7.626,0,0,1,1.677-5.255,5.915,5.915,0,0,1,4.656-1.882,5.788,5.788,0,0,1,4.575,1.926A7.6,7.6,0,0,1,37.833-6.315Zm-10.451,0a6.575,6.575,0,0,0,1.051,4.028A3.641,3.641,0,0,0,31.525-.9a3.665,3.665,0,0,0,3.1-1.378A6.541,6.541,0,0,0,35.68-6.315a6.436,6.436,0,0,0-1.058-4A3.707,3.707,0,0,0,31.5-11.676a3.648,3.648,0,0,0-3.079,1.347A6.508,6.508,0,0,0,27.382-6.315ZM44.479.6,39.272-13.2H41.5l2.954,8.181a38.882,38.882,0,0,1,1.177,3.726h.1a28.257,28.257,0,0,1,.87-2.763q.732-2.1,3.286-9.144h2.228L46.907.6ZM56.395.6H54.317V-13.2h2.078Z" transform="translate(118.852 126.153)" fill="#12275b"/>
      <path id="Path_186" data-name="Path 186" d="M54.229-15.339q.6-.78,1.3-1.888a21.638,21.638,0,0,0,1.1-1.926h2.528v.264a18.586,18.586,0,0,1-1.64,2.014,18.663,18.663,0,0,1-1.89,1.85H54.229Z" transform="translate(118.852 126.153)" fill="#ff5703"/>
    </g>
    <path id="Path_187" data-name="Path 187" d="M69.429,27.8a1.019,1.019,0,1,1,.711.289A.966.966,0,0,1,69.429,27.8Z" transform="translate(41.86 107.103)" fill="#ff8447"/>
    <path id="Path_188" data-name="Path 188" d="M69.574,28.653a1.529,1.529,0,1,1,1.067.433A1.45,1.45,0,0,1,69.574,28.653Z" transform="translate(46.86 106.563)" fill="#ff8447"/>
    <path id="Path_189" data-name="Path 189" d="M69.676,29.259a1.89,1.89,0,1,1,1.318.536A1.792,1.792,0,0,1,69.676,29.259Z" transform="translate(52.86 106.205)" fill="#ff8447"/>
  </g>
</svg>
